<svg width="12" height="12" viewBox="0 0 12 12" fill="none" xmlns="http://www.w3.org/2000/svg">
<path fill-rule="evenodd" clip-rule="evenodd" d="M12 6C12 9.31371 9.31371 12 6 12C2.68629 12 0 9.31371 0 6C0 2.68629 2.68629 0 6 0C9.31371 0 12 2.68629 12 6ZM3.17146 8.82841C2.78094 8.43789 2.78094 7.80472 3.17146 7.4142L4.58571 5.99995L3.17156 4.5858C2.78103 4.19527 2.78103 3.56211 3.17156 3.17158C3.56208 2.78106 4.19524 2.78106 4.58577 3.17158L5.99992 4.58574L7.4141 3.17156C7.80463 2.78104 8.43779 2.78104 8.82832 3.17156C9.21884 3.56208 9.21884 4.19525 8.82832 4.58577L7.41414 5.99995L8.82841 7.41423C9.21893 7.80475 9.21893 8.43791 8.82841 8.82844C8.43789 9.21896 7.80472 9.21896 7.4142 8.82844L5.99992 7.41417L4.58568 8.82841C4.19515 9.21894 3.56199 9.21894 3.17146 8.82841Z" fill="#FF0066"/>
</svg>
